<svg width="1536" height="1590" viewBox="0 0 1536 1590" fill="none" xmlns="http://www.w3.org/2000/svg">
<rect width="1536" height="1536" rx="250" fill="url(#paint0_linear_3946_20676)"/>
<g filter="url(#filter0_f_3946_20676)">
<path d="M548.056 907.08C548.056 978.974 619.788 1014.92 763.251 1014.92C860.186 1014.92 981.893 978.329 1128.37 905.143L1194.29 870.272C1294.24 819.472 1350.68 808.494 1363.6 837.338C1367.05 845.087 1368.77 854.128 1368.77 864.46C1368.77 874.361 1364.46 884.693 1355.85 895.456C1347.66 905.788 1336.46 917.412 1322.24 930.327C1308.02 942.812 1291.44 956.158 1272.48 970.364C1253.53 984.14 1233.49 997.917 1212.38 1011.69L1149.05 1051.08C1127.51 1064 1104.25 1076.7 1079.26 1089.18L984.909 1135.68C837.137 1204.56 697.767 1239 566.797 1239C452.199 1239 364.096 1216.4 302.488 1171.2C247.343 1131.16 219.771 1079.5 219.771 1016.21C219.771 928.82 259.191 840.782 338.031 752.098C406.101 675.898 499.373 603.573 617.849 535.123C721.246 475.282 831.537 426.205 948.72 387.89C1059.44 351.297 1149.27 333 1218.2 333C1232.85 333 1245.12 337.736 1255.03 347.207C1273.13 363.996 1282.18 380.571 1282.18 396.93C1282.18 460.645 1255.68 512.091 1202.69 551.267C1157.45 584.416 1104.68 600.99 1044.36 600.99C984.047 600.99 938.811 594.963 908.654 582.909C796.209 626.39 704.875 684.723 634.651 757.909C605.355 788.475 583.599 817.104 569.382 843.795C555.165 870.487 548.056 891.582 548.056 907.08Z" fill="#0B191F" fill-opacity="0.16"/>
</g>
<g filter="url(#filter1_dddd_3946_20676)">
<path d="M523.286 889.08C523.286 960.974 595.017 996.922 738.481 996.922C835.416 996.922 957.123 960.329 1103.6 887.143L1169.52 852.272C1269.47 801.472 1325.91 790.494 1338.83 819.338C1342.28 827.087 1344 836.128 1344 846.46C1344 856.361 1339.69 866.693 1331.08 877.456C1322.89 887.788 1311.69 899.412 1297.47 912.327C1283.25 924.812 1266.67 938.158 1247.71 952.364C1228.76 966.14 1208.72 979.917 1187.61 993.693L1124.28 1033.08C1102.74 1046 1079.48 1058.7 1054.49 1071.18L960.138 1117.68C812.367 1186.56 672.996 1221 542.026 1221C427.428 1221 339.325 1198.4 277.718 1153.2C222.573 1113.16 195 1061.5 195 998.213C195 910.82 234.42 822.782 313.26 734.098C381.33 657.898 474.603 585.573 593.079 517.123C696.476 457.282 806.766 408.205 923.949 369.89C1034.67 333.297 1124.5 315 1193.43 315C1208.08 315 1220.35 319.736 1230.26 329.207C1248.36 345.996 1257.41 362.571 1257.41 378.93C1257.41 442.645 1230.91 494.091 1177.92 533.267C1132.68 566.416 1079.91 582.99 1019.59 582.99C959.277 582.99 914.041 576.963 883.883 564.909C771.439 608.39 680.105 666.723 609.881 739.909C580.585 770.475 558.828 799.104 544.611 825.795C530.394 852.487 523.286 873.582 523.286 889.08Z" fill="url(#paint1_linear_3946_20676)"/>
<path d="M1193.43 312C1208.77 312 1221.8 316.985 1232.3 327.008L1233.16 327.808C1251 344.618 1260.41 361.664 1260.41 378.93C1260.41 443.634 1233.43 495.96 1179.7 535.679L1179.69 535.687C1133.9 569.241 1080.49 585.99 1019.59 585.99C959.887 585.99 914.56 580.105 883.876 568.129C772.265 611.436 681.687 669.406 612.046 741.984C582.871 772.424 561.306 800.833 547.259 827.206C533.093 853.802 526.286 874.351 526.286 889.08C526.286 906.53 530.63 921.664 539.233 934.599C547.849 947.552 560.852 958.471 578.429 967.279C613.667 984.938 666.903 993.922 738.48 993.922C834.731 993.922 955.942 957.563 1102.25 884.464L1168.11 849.62L1168.14 849.608L1168.16 849.597C1218.19 824.166 1257.59 808.564 1286.24 802.993C1300.55 800.209 1312.44 799.875 1321.73 802.267C1330.85 804.617 1337.49 809.624 1341.22 817.354L1341.57 818.111L1341.57 818.119C1345.22 826.326 1347 835.798 1347 846.46C1347 857.263 1342.3 868.233 1333.43 879.318L1333.43 879.319C1325.11 889.823 1313.78 901.568 1299.49 914.548L1299.45 914.581C1285.16 927.128 1268.51 940.523 1249.51 954.765L1249.49 954.778L1249.48 954.791C1230.48 968.599 1210.4 982.403 1189.25 996.205L1189.22 996.223L1189.2 996.24L1125.87 1035.63L1125.84 1035.64L1125.82 1035.66C1104.21 1048.62 1080.88 1061.35 1055.83 1073.87L1055.82 1073.87L1055.81 1073.88L961.465 1120.37L961.436 1120.38L961.406 1120.4C813.332 1189.42 673.528 1224 542.026 1224C427.1 1224 338.276 1201.34 275.955 1155.62L274.651 1154.67C219.665 1114.25 192 1062.04 192 998.213C192 909.858 231.866 821.14 311.019 732.104L311.023 732.099C379.363 655.597 472.914 583.085 591.578 514.525C695.161 454.578 805.642 405.416 923.017 367.038C1033.86 330.406 1124.03 312 1193.43 312Z" stroke="url(#paint2_linear_3946_20676)" stroke-width="6"/>
</g>
<defs>
<filter id="filter0_f_3946_20676" x="174.471" y="287.7" width="1239.6" height="996.6" filterUnits="userSpaceOnUse" color-interpolation-filters="sRGB">
<feFlood flood-opacity="0" result="BackgroundImageFix"/>
<feBlend mode="normal" in="SourceGraphic" in2="BackgroundImageFix" result="shape"/>
<feGaussianBlur stdDeviation="22.65" result="effect1_foregroundBlur_3946_20676"/>
</filter>
<filter id="filter1_dddd_3946_20676" x="84" y="288" width="1371" height="1302" filterUnits="userSpaceOnUse" color-interpolation-filters="sRGB">
<feFlood flood-opacity="0" result="BackgroundImageFix"/>
<feColorMatrix in="SourceAlpha" type="matrix" values="0 0 0 0 0 0 0 0 0 0 0 0 0 0 0 0 0 0 127 0" result="hardAlpha"/>
<feOffset dy="15"/>
<feGaussianBlur stdDeviation="18"/>
<feColorMatrix type="matrix" values="0 0 0 0 0.0823529 0 0 0 0 0.0823529 0 0 0 0 0.0823529 0 0 0 0.08 0"/>
<feBlend mode="normal" in2="BackgroundImageFix" result="effect1_dropShadow_3946_20676"/>
<feColorMatrix in="SourceAlpha" type="matrix" values="0 0 0 0 0 0 0 0 0 0 0 0 0 0 0 0 0 0 127 0" result="hardAlpha"/>
<feOffset dy="66"/>
<feGaussianBlur stdDeviation="33"/>
<feColorMatrix type="matrix" values="0 0 0 0 0.0823529 0 0 0 0 0.0823529 0 0 0 0 0.0823529 0 0 0 0.07 0"/>
<feBlend mode="normal" in2="effect1_dropShadow_3946_20676" result="effect2_dropShadow_3946_20676"/>
<feColorMatrix in="SourceAlpha" type="matrix" values="0 0 0 0 0 0 0 0 0 0 0 0 0 0 0 0 0 0 127 0" result="hardAlpha"/>
<feOffset dy="147"/>
<feGaussianBlur stdDeviation="43.5"/>
<feColorMatrix type="matrix" values="0 0 0 0 0.0823529 0 0 0 0 0.0823529 0 0 0 0 0.0823529 0 0 0 0.04 0"/>
<feBlend mode="normal" in2="effect2_dropShadow_3946_20676" result="effect3_dropShadow_3946_20676"/>
<feColorMatrix in="SourceAlpha" type="matrix" values="0 0 0 0 0 0 0 0 0 0 0 0 0 0 0 0 0 0 127 0" result="hardAlpha"/>
<feOffset dy="258"/>
<feGaussianBlur stdDeviation="52.5"/>
<feColorMatrix type="matrix" values="0 0 0 0 0.0823529 0 0 0 0 0.0823529 0 0 0 0 0.0823529 0 0 0 0.01 0"/>
<feBlend mode="normal" in2="effect3_dropShadow_3946_20676" result="effect4_dropShadow_3946_20676"/>
<feBlend mode="normal" in="SourceGraphic" in2="effect4_dropShadow_3946_20676" result="shape"/>
</filter>
<linearGradient id="paint0_linear_3946_20676" x1="602.505" y1="-3859.2" x2="12984.7" y2="11807.4" gradientUnits="userSpaceOnUse">
<stop stop-color="#24B5F8"/>
<stop offset="1" stop-color="#5521FE"/>
</linearGradient>
<linearGradient id="paint1_linear_3946_20676" x1="769.5" y1="315" x2="425.271" y2="1327.5" gradientUnits="userSpaceOnUse">
<stop stop-color="white"/>
<stop offset="1" stop-color="white" stop-opacity="0.83"/>
</linearGradient>
<linearGradient id="paint2_linear_3946_20676" x1="769.5" y1="315" x2="769.5" y2="1221" gradientUnits="userSpaceOnUse">
<stop stop-color="#0076DA" stop-opacity="0"/>
<stop offset="1" stop-color="white"/>
</linearGradient>
</defs>
</svg>
